<mxfile host="app.diagrams.net" modified="2023-09-29T04:24:02.787Z" agent="Mozilla/5.0 (Windows NT 10.0; Win64; x64) AppleWebKit/537.36 (KHTML, like Gecko) Chrome/117.0.0.0 Safari/537.36" etag="iZTn9F7VlJcQyfPQ1pHz" version="22.0.0" type="device">
  <diagram name="Page-1" id="0nTxUwXMqDWhfaBj3t8A">
    <mxGraphModel dx="1900" dy="1677" grid="1" gridSize="10" guides="1" tooltips="1" connect="1" arrows="1" fold="1" page="1" pageScale="1" pageWidth="850" pageHeight="1100" math="0" shadow="0">
      <root>
        <mxCell id="0" />
        <mxCell id="1" parent="0" />
        <mxCell id="s87woYfxpbsdPWMNcFb8-4" value="Criminal" style="rounded=1;arcSize=10;whiteSpace=wrap;html=1;align=center;fontSize=14;fillColor=#d5e8d4;strokeColor=#82b366;gradientColor=#97d077;" parent="1" vertex="1">
          <mxGeometry x="486.5" y="-350" width="100" height="60" as="geometry" />
        </mxCell>
        <mxCell id="s87woYfxpbsdPWMNcFb8-5" value="Name" style="ellipse;whiteSpace=wrap;html=1;align=center;fontSize=14;rounded=1;fillColor=#fff2cc;strokeColor=#d6b656;gradientColor=#ffd966;" parent="1" vertex="1">
          <mxGeometry x="725.5" y="-350" width="89" height="47" as="geometry" />
        </mxCell>
        <mxCell id="s87woYfxpbsdPWMNcFb8-8" value="" style="endArrow=none;html=1;rounded=1;entryX=0;entryY=0.5;entryDx=0;entryDy=0;exitX=1;exitY=0.5;exitDx=0;exitDy=0;fontSize=14;" parent="1" source="s87woYfxpbsdPWMNcFb8-4" target="s87woYfxpbsdPWMNcFb8-5" edge="1">
          <mxGeometry width="50" height="50" relative="1" as="geometry">
            <mxPoint x="506.5" y="-250" as="sourcePoint" />
            <mxPoint x="556.5" y="-300" as="targetPoint" />
          </mxGeometry>
        </mxCell>
        <mxCell id="s87woYfxpbsdPWMNcFb8-11" value="&lt;div style=&quot;font-size: 14px;&quot;&gt;Birth&lt;br style=&quot;font-size: 14px;&quot;&gt;&lt;/div&gt;&lt;div style=&quot;font-size: 14px;&quot;&gt;Place&lt;/div&gt;" style="ellipse;whiteSpace=wrap;html=1;align=center;fontSize=14;rounded=1;fillColor=#fff2cc;strokeColor=#d6b656;gradientColor=#ffd966;" parent="1" vertex="1">
          <mxGeometry x="707" y="-413" width="89" height="47" as="geometry" />
        </mxCell>
        <mxCell id="ozhJYuurUEimVHZO0DNk-2" value="Gender" style="ellipse;whiteSpace=wrap;html=1;align=center;fontSize=14;rounded=1;fillColor=#fff2cc;strokeColor=#d6b656;gradientColor=#ffd966;" parent="1" vertex="1">
          <mxGeometry x="573" y="-196.5" width="89" height="47" as="geometry" />
        </mxCell>
        <mxCell id="s87woYfxpbsdPWMNcFb8-12" value="" style="endArrow=none;html=1;rounded=1;entryX=0.085;entryY=0.776;entryDx=0;entryDy=0;exitX=0.987;exitY=0.037;exitDx=0;exitDy=0;entryPerimeter=0;exitPerimeter=0;fontSize=14;" parent="1" source="s87woYfxpbsdPWMNcFb8-4" target="s87woYfxpbsdPWMNcFb8-11" edge="1">
          <mxGeometry width="50" height="50" relative="1" as="geometry">
            <mxPoint x="586.5" y="-410" as="sourcePoint" />
            <mxPoint x="536.5" y="-390" as="targetPoint" />
          </mxGeometry>
        </mxCell>
        <mxCell id="ozhJYuurUEimVHZO0DNk-3" value="" style="endArrow=none;html=1;rounded=1;exitX=0.624;exitY=1.009;exitDx=0;exitDy=0;entryX=0.454;entryY=0.002;entryDx=0;entryDy=0;entryPerimeter=0;exitPerimeter=0;fontSize=14;" parent="1" source="s87woYfxpbsdPWMNcFb8-4" target="ozhJYuurUEimVHZO0DNk-2" edge="1">
          <mxGeometry width="50" height="50" relative="1" as="geometry">
            <mxPoint x="561.5" y="-300" as="sourcePoint" />
            <mxPoint x="571.5" y="-270" as="targetPoint" />
          </mxGeometry>
        </mxCell>
        <mxCell id="s87woYfxpbsdPWMNcFb8-13" value="DOB" style="ellipse;whiteSpace=wrap;html=1;align=center;fontSize=14;rounded=1;fillColor=#fff2cc;strokeColor=#d6b656;gradientColor=#ffd966;" parent="1" vertex="1">
          <mxGeometry x="402" y="-260" width="89" height="47" as="geometry" />
        </mxCell>
        <mxCell id="s87woYfxpbsdPWMNcFb8-14" value="" style="endArrow=none;html=1;rounded=1;entryX=0.692;entryY=0.045;entryDx=0;entryDy=0;exitX=0.25;exitY=1;exitDx=0;exitDy=0;entryPerimeter=0;fontSize=14;" parent="1" source="s87woYfxpbsdPWMNcFb8-4" target="s87woYfxpbsdPWMNcFb8-13" edge="1">
          <mxGeometry width="50" height="50" relative="1" as="geometry">
            <mxPoint x="496.5" y="-420" as="sourcePoint" />
            <mxPoint x="446.5" y="-400" as="targetPoint" />
          </mxGeometry>
        </mxCell>
        <mxCell id="XXAQpd8H75MBfK3XgcK5-2" value="" style="endArrow=none;html=1;rounded=1;exitX=0.964;exitY=0.987;exitDx=0;exitDy=0;exitPerimeter=0;entryX=0.027;entryY=0.344;entryDx=0;entryDy=0;entryPerimeter=0;fontSize=14;" parent="1" source="s87woYfxpbsdPWMNcFb8-4" target="XXAQpd8H75MBfK3XgcK5-3" edge="1">
          <mxGeometry width="50" height="50" relative="1" as="geometry">
            <mxPoint x="599.1199999999999" y="-301.91" as="sourcePoint" />
            <mxPoint x="666.5" y="-238.09000000000003" as="targetPoint" />
          </mxGeometry>
        </mxCell>
        <mxCell id="XXAQpd8H75MBfK3XgcK5-3" value="Nationality" style="ellipse;whiteSpace=wrap;html=1;align=center;fontSize=14;rounded=1;fillColor=#fff2cc;strokeColor=#d6b656;gradientColor=#ffd966;" parent="1" vertex="1">
          <mxGeometry x="662" y="-243.5" width="89" height="47" as="geometry" />
        </mxCell>
        <mxCell id="s87woYfxpbsdPWMNcFb8-16" value="Age" style="ellipse;whiteSpace=wrap;html=1;align=center;dashed=1;fontSize=14;rounded=1;fillColor=#fff2cc;strokeColor=#d6b656;gradientColor=#ffd966;" parent="1" vertex="1">
          <mxGeometry x="456.5" y="-430" width="89" height="47" as="geometry" />
        </mxCell>
        <mxCell id="s87woYfxpbsdPWMNcFb8-17" value="" style="endArrow=none;html=1;rounded=1;entryX=0.62;entryY=0.985;entryDx=0;entryDy=0;entryPerimeter=0;exitX=0.457;exitY=0.004;exitDx=0;exitDy=0;exitPerimeter=0;fontSize=14;" parent="1" source="s87woYfxpbsdPWMNcFb8-4" target="s87woYfxpbsdPWMNcFb8-16" edge="1">
          <mxGeometry width="50" height="50" relative="1" as="geometry">
            <mxPoint x="376.5" y="-320" as="sourcePoint" />
            <mxPoint x="426.5" y="-370" as="targetPoint" />
          </mxGeometry>
        </mxCell>
        <mxCell id="XXAQpd8H75MBfK3XgcK5-4" value="" style="endArrow=none;html=1;rounded=1;entryX=0.5;entryY=1;entryDx=0;entryDy=0;exitX=0.441;exitY=0.004;exitDx=0;exitDy=0;fontSize=14;exitPerimeter=0;" parent="1" source="XXAQpd8H75MBfK3XgcK5-5" target="XXAQpd8H75MBfK3XgcK5-3" edge="1">
          <mxGeometry width="50" height="50" relative="1" as="geometry">
            <mxPoint x="776.5" y="-200" as="sourcePoint" />
            <mxPoint x="756.5" y="-220" as="targetPoint" />
          </mxGeometry>
        </mxCell>
        <mxCell id="XXAQpd8H75MBfK3XgcK5-5" value="&lt;u style=&quot;font-size: 14px;&quot;&gt;National Id&lt;/u&gt;" style="ellipse;whiteSpace=wrap;html=1;align=center;fontSize=14;rounded=1;fillColor=#fff2cc;strokeColor=#d6b656;gradientColor=#ffd966;" parent="1" vertex="1">
          <mxGeometry x="688" y="-160" width="89" height="47" as="geometry" />
        </mxCell>
        <mxCell id="XXAQpd8H75MBfK3XgcK5-6" value="" style="endArrow=none;html=1;rounded=1;entryX=0;entryY=0.5;entryDx=0;entryDy=0;exitX=1;exitY=0.5;exitDx=0;exitDy=0;fontSize=14;" parent="1" source="XXAQpd8H75MBfK3XgcK5-3" target="XXAQpd8H75MBfK3XgcK5-7" edge="1">
          <mxGeometry width="50" height="50" relative="1" as="geometry">
            <mxPoint x="756.5" y="-240" as="sourcePoint" />
            <mxPoint x="796.5" y="-260" as="targetPoint" />
          </mxGeometry>
        </mxCell>
        <mxCell id="XXAQpd8H75MBfK3XgcK5-7" value="Passport" style="ellipse;whiteSpace=wrap;html=1;align=center;fontSize=14;rounded=1;fillColor=#fff2cc;strokeColor=#d6b656;gradientColor=#ffd966;" parent="1" vertex="1">
          <mxGeometry x="787" y="-237" width="89" height="47" as="geometry" />
        </mxCell>
        <mxCell id="s87woYfxpbsdPWMNcFb8-20" value="" style="endArrow=none;html=1;rounded=1;exitX=0.656;exitY=0.016;exitDx=0;exitDy=0;exitPerimeter=0;entryX=0.5;entryY=1;entryDx=0;entryDy=0;fontSize=14;" parent="1" source="s87woYfxpbsdPWMNcFb8-4" target="s87woYfxpbsdPWMNcFb8-35" edge="1">
          <mxGeometry relative="1" as="geometry">
            <mxPoint x="496.5" y="-370" as="sourcePoint" />
            <mxPoint x="610.7649999999999" y="-430.12" as="targetPoint" />
          </mxGeometry>
        </mxCell>
        <mxCell id="s87woYfxpbsdPWMNcFb8-23" value="Eye color" style="ellipse;whiteSpace=wrap;html=1;align=center;fontSize=14;rounded=1;fillColor=#fff2cc;strokeColor=#d6b656;gradientColor=#ffd966;" parent="1" vertex="1">
          <mxGeometry x="786.5" y="-600" width="89" height="47" as="geometry" />
        </mxCell>
        <mxCell id="s87woYfxpbsdPWMNcFb8-24" value="Hair" style="ellipse;whiteSpace=wrap;html=1;align=center;fontSize=14;rounded=1;fillColor=#fff2cc;strokeColor=#d6b656;gradientColor=#ffd966;" parent="1" vertex="1">
          <mxGeometry x="775.5" y="-660" width="89" height="47" as="geometry" />
        </mxCell>
        <mxCell id="s87woYfxpbsdPWMNcFb8-25" value="Weight" style="ellipse;whiteSpace=wrap;html=1;align=center;fontSize=14;rounded=1;fillColor=#fff2cc;strokeColor=#d6b656;gradientColor=#ffd966;" parent="1" vertex="1">
          <mxGeometry x="586.5" y="-700" width="89" height="47" as="geometry" />
        </mxCell>
        <mxCell id="s87woYfxpbsdPWMNcFb8-26" value="Height" style="ellipse;whiteSpace=wrap;html=1;align=center;fontSize=14;rounded=1;fillColor=#fff2cc;strokeColor=#d6b656;gradientColor=#ffd966;" parent="1" vertex="1">
          <mxGeometry x="517.5" y="-640" width="89" height="47" as="geometry" />
        </mxCell>
        <mxCell id="XXAQpd8H75MBfK3XgcK5-8" value="" style="endArrow=none;html=1;rounded=1;entryX=0.5;entryY=1;entryDx=0;entryDy=0;exitX=0.5;exitY=0;exitDx=0;exitDy=0;fontSize=14;" parent="1" source="XXAQpd8H75MBfK3XgcK5-9" target="s87woYfxpbsdPWMNcFb8-4" edge="1">
          <mxGeometry width="50" height="50" relative="1" as="geometry">
            <mxPoint x="506.5" y="-200" as="sourcePoint" />
            <mxPoint x="536.5" y="-300" as="targetPoint" />
          </mxGeometry>
        </mxCell>
        <mxCell id="XXAQpd8H75MBfK3XgcK5-10" value="" style="endArrow=none;html=1;rounded=1;entryX=0.34;entryY=0.976;entryDx=0;entryDy=0;entryPerimeter=0;exitX=0.5;exitY=0;exitDx=0;exitDy=0;fontSize=14;" parent="1" source="XXAQpd8H75MBfK3XgcK5-12" target="XXAQpd8H75MBfK3XgcK5-9" edge="1">
          <mxGeometry width="50" height="50" relative="1" as="geometry">
            <mxPoint x="466.5" y="-100" as="sourcePoint" />
            <mxPoint x="493.5" y="-160" as="targetPoint" />
          </mxGeometry>
        </mxCell>
        <mxCell id="s87woYfxpbsdPWMNcFb8-29" value="" style="endArrow=none;html=1;rounded=1;exitX=0.584;exitY=0.986;exitDx=0;exitDy=0;exitPerimeter=0;entryX=0.402;entryY=0.011;entryDx=0;entryDy=0;entryPerimeter=0;fontSize=14;" parent="1" source="s87woYfxpbsdPWMNcFb8-25" target="s87woYfxpbsdPWMNcFb8-34" edge="1">
          <mxGeometry relative="1" as="geometry">
            <mxPoint x="624.5" y="-626" as="sourcePoint" />
            <mxPoint x="677.8389999999999" y="-638.12" as="targetPoint" />
          </mxGeometry>
        </mxCell>
        <mxCell id="XXAQpd8H75MBfK3XgcK5-11" value="" style="endArrow=none;html=1;rounded=1;entryX=0.64;entryY=0.99;entryDx=0;entryDy=0;entryPerimeter=0;exitX=0.5;exitY=0;exitDx=0;exitDy=0;fontSize=14;" parent="1" source="XXAQpd8H75MBfK3XgcK5-13" target="XXAQpd8H75MBfK3XgcK5-9" edge="1">
          <mxGeometry width="50" height="50" relative="1" as="geometry">
            <mxPoint x="526.5" y="-110" as="sourcePoint" />
            <mxPoint x="556.5" y="-140" as="targetPoint" />
          </mxGeometry>
        </mxCell>
        <mxCell id="s87woYfxpbsdPWMNcFb8-30" value="" style="endArrow=none;html=1;rounded=1;exitX=0.364;exitY=0.962;exitDx=0;exitDy=0;exitPerimeter=0;entryX=0.725;entryY=-0.021;entryDx=0;entryDy=0;entryPerimeter=0;fontSize=14;" parent="1" source="s87woYfxpbsdPWMNcFb8-33" target="s87woYfxpbsdPWMNcFb8-34" edge="1">
          <mxGeometry relative="1" as="geometry">
            <mxPoint x="730.933" y="-672.1600000000001" as="sourcePoint" />
            <mxPoint x="709.345" y="-639.72" as="targetPoint" />
          </mxGeometry>
        </mxCell>
        <mxCell id="s87woYfxpbsdPWMNcFb8-31" value="" style="endArrow=none;html=1;rounded=1;exitX=0.011;exitY=0.583;exitDx=0;exitDy=0;exitPerimeter=0;entryX=1.002;entryY=0.068;entryDx=0;entryDy=0;entryPerimeter=0;fontSize=14;" parent="1" source="s87woYfxpbsdPWMNcFb8-24" target="s87woYfxpbsdPWMNcFb8-34" edge="1">
          <mxGeometry relative="1" as="geometry">
            <mxPoint x="644.5" y="-606" as="sourcePoint" />
            <mxPoint x="741.8299999999999" y="-627.4" as="targetPoint" />
          </mxGeometry>
        </mxCell>
        <mxCell id="s87woYfxpbsdPWMNcFb8-32" value="" style="endArrow=none;html=1;rounded=1;exitX=1;exitY=0.5;exitDx=0;exitDy=0;entryX=0.011;entryY=0.389;entryDx=0;entryDy=0;entryPerimeter=0;fontSize=14;" parent="1" source="s87woYfxpbsdPWMNcFb8-34" target="s87woYfxpbsdPWMNcFb8-23" edge="1">
          <mxGeometry relative="1" as="geometry">
            <mxPoint x="737.825" y="-609.64" as="sourcePoint" />
            <mxPoint x="805.5" y="-580" as="targetPoint" />
          </mxGeometry>
        </mxCell>
        <mxCell id="XXAQpd8H75MBfK3XgcK5-13" value="Current" style="ellipse;whiteSpace=wrap;html=1;align=center;fontSize=14;rounded=1;fillColor=#fff2cc;strokeColor=#d6b656;gradientColor=#ffd966;" parent="1" vertex="1">
          <mxGeometry x="525.5" y="-130" width="89" height="47" as="geometry" />
        </mxCell>
        <mxCell id="XXAQpd8H75MBfK3XgcK5-9" value="Occupation" style="ellipse;whiteSpace=wrap;html=1;align=center;fontSize=14;rounded=1;fillColor=#fff2cc;strokeColor=#d6b656;gradientColor=#ffd966;" parent="1" vertex="1">
          <mxGeometry x="466.5" y="-210" width="89" height="47" as="geometry" />
        </mxCell>
        <mxCell id="XXAQpd8H75MBfK3XgcK5-12" value="Previous" style="ellipse;whiteSpace=wrap;html=1;align=center;fontSize=14;rounded=1;fillColor=#fff2cc;strokeColor=#d6b656;gradientColor=#ffd966;" parent="1" vertex="1">
          <mxGeometry x="409.5" y="-130" width="89" height="47" as="geometry" />
        </mxCell>
        <mxCell id="s87woYfxpbsdPWMNcFb8-28" value="" style="endArrow=none;html=1;rounded=1;exitX=0.969;exitY=0.683;exitDx=0;exitDy=0;entryX=0.008;entryY=0.342;entryDx=0;entryDy=0;entryPerimeter=0;exitPerimeter=0;fontSize=14;" parent="1" source="s87woYfxpbsdPWMNcFb8-26" target="s87woYfxpbsdPWMNcFb8-34" edge="1">
          <mxGeometry relative="1" as="geometry">
            <mxPoint x="601.9508565111796" y="-625.6299594769521" as="sourcePoint" />
            <mxPoint x="657.903" y="-626.4" as="targetPoint" />
          </mxGeometry>
        </mxCell>
        <mxCell id="XXAQpd8H75MBfK3XgcK5-15" value="" style="endArrow=none;html=1;rounded=1;entryX=0.5;entryY=1;entryDx=0;entryDy=0;exitX=0.521;exitY=0.025;exitDx=0;exitDy=0;exitPerimeter=0;fontSize=14;" parent="1" source="XXAQpd8H75MBfK3XgcK5-17" target="XXAQpd8H75MBfK3XgcK5-13" edge="1">
          <mxGeometry width="50" height="50" relative="1" as="geometry">
            <mxPoint x="561.5" y="-50" as="sourcePoint" />
            <mxPoint x="516.5" y="-70" as="targetPoint" />
          </mxGeometry>
        </mxCell>
        <mxCell id="XXAQpd8H75MBfK3XgcK5-14" value="" style="endArrow=none;html=1;rounded=1;entryX=0.5;entryY=1;entryDx=0;entryDy=0;exitX=0.511;exitY=0.046;exitDx=0;exitDy=0;exitPerimeter=0;fontSize=14;" parent="1" source="XXAQpd8H75MBfK3XgcK5-16" target="XXAQpd8H75MBfK3XgcK5-12" edge="1">
          <mxGeometry width="50" height="50" relative="1" as="geometry">
            <mxPoint x="446.5" y="-50" as="sourcePoint" />
            <mxPoint x="447.5" y="-80" as="targetPoint" />
          </mxGeometry>
        </mxCell>
        <mxCell id="XXAQpd8H75MBfK3XgcK5-16" value="Income" style="ellipse;whiteSpace=wrap;html=1;align=center;fontSize=14;rounded=1;fillColor=#fff2cc;strokeColor=#d6b656;gradientColor=#ffd966;" parent="1" vertex="1">
          <mxGeometry x="401.5" y="-50" width="89" height="47" as="geometry" />
        </mxCell>
        <mxCell id="XXAQpd8H75MBfK3XgcK5-17" value="Income" style="ellipse;whiteSpace=wrap;html=1;align=center;fontSize=14;rounded=1;fillColor=#fff2cc;strokeColor=#d6b656;gradientColor=#ffd966;" parent="1" vertex="1">
          <mxGeometry x="517.5" y="-50" width="89" height="47" as="geometry" />
        </mxCell>
        <mxCell id="s87woYfxpbsdPWMNcFb8-33" value="&lt;div style=&quot;font-size: 14px;&quot;&gt;Scars&lt;/div&gt;&lt;div style=&quot;font-size: 14px;&quot;&gt;and&lt;/div&gt;&lt;div style=&quot;font-size: 14px;&quot;&gt;Marks&lt;/div&gt;" style="ellipse;shape=doubleEllipse;margin=3;whiteSpace=wrap;html=1;align=center;fontSize=14;rounded=1;rotation=0;fillColor=#fff2cc;strokeColor=#d6b656;gradientColor=#ffd966;" parent="1" vertex="1">
          <mxGeometry x="690.5" y="-740" width="122" height="70" as="geometry" />
        </mxCell>
        <mxCell id="s87woYfxpbsdPWMNcFb8-34" value="&lt;div style=&quot;font-size: 14px;&quot;&gt;Physical&lt;/div&gt;&lt;div style=&quot;font-size: 14px;&quot;&gt;Appearance&lt;br style=&quot;font-size: 14px;&quot;&gt;&lt;/div&gt;" style="rounded=1;arcSize=10;whiteSpace=wrap;html=1;align=center;fontSize=14;fillColor=#d5e8d4;strokeColor=#82b366;gradientColor=#97d077;" parent="1" vertex="1">
          <mxGeometry x="636.5" y="-620" width="100" height="60" as="geometry" />
        </mxCell>
        <mxCell id="s87woYfxpbsdPWMNcFb8-35" value="&lt;div style=&quot;font-size: 14px;&quot;&gt;Looks&lt;/div&gt;&lt;div style=&quot;font-size: 14px;&quot;&gt;Like&lt;/div&gt;" style="shape=rhombus;perimeter=rhombusPerimeter;whiteSpace=wrap;html=1;align=center;fontSize=14;rounded=1;fillColor=#dae8fc;gradientColor=#7ea6e0;strokeColor=#6c8ebf;" parent="1" vertex="1">
          <mxGeometry x="524.5" y="-513" width="120" height="70" as="geometry" />
        </mxCell>
        <mxCell id="XXAQpd8H75MBfK3XgcK5-19" value="Crime" style="rounded=1;arcSize=10;whiteSpace=wrap;html=1;align=center;fontSize=14;fillColor=#d5e8d4;strokeColor=#82b366;gradientColor=#97d077;" parent="1" vertex="1">
          <mxGeometry x="171" y="70" width="100" height="60" as="geometry" />
        </mxCell>
        <mxCell id="XXAQpd8H75MBfK3XgcK5-20" value="" style="endArrow=none;html=1;rounded=1;entryX=1;entryY=0.5;entryDx=0;entryDy=0;exitX=0;exitY=0;exitDx=0;exitDy=0;fontSize=14;" parent="1" source="OCj4loIqSsVYa-qWEfAn-1" target="XXAQpd8H75MBfK3XgcK5-19" edge="1">
          <mxGeometry width="50" height="50" relative="1" as="geometry">
            <mxPoint x="351" y="170" as="sourcePoint" />
            <mxPoint x="481" y="70" as="targetPoint" />
          </mxGeometry>
        </mxCell>
        <mxCell id="s87woYfxpbsdPWMNcFb8-36" value="" style="endArrow=none;html=1;rounded=1;exitX=0.505;exitY=0.026;exitDx=0;exitDy=0;entryX=0.5;entryY=1;entryDx=0;entryDy=0;fontSize=14;exitPerimeter=0;" parent="1" source="s87woYfxpbsdPWMNcFb8-35" target="s87woYfxpbsdPWMNcFb8-34" edge="1">
          <mxGeometry relative="1" as="geometry">
            <mxPoint x="526.5" y="-490" as="sourcePoint" />
            <mxPoint x="686.5" y="-490" as="targetPoint" />
          </mxGeometry>
        </mxCell>
        <mxCell id="OCj4loIqSsVYa-qWEfAn-1" value="&lt;div style=&quot;font-size: 14px;&quot;&gt;Current&lt;/div&gt;&lt;div style=&quot;font-size: 14px;&quot;&gt;Crime&lt;/div&gt;" style="shape=rhombus;perimeter=rhombusPerimeter;whiteSpace=wrap;html=1;align=center;fontSize=14;rounded=1;fillColor=#dae8fc;gradientColor=#7ea6e0;strokeColor=#6c8ebf;" parent="1" vertex="1">
          <mxGeometry x="340" y="143.5" width="120" height="60" as="geometry" />
        </mxCell>
        <mxCell id="XXAQpd8H75MBfK3XgcK5-23" value="" style="endArrow=none;html=1;rounded=1;exitX=0.5;exitY=0;exitDx=0;exitDy=0;fontSize=14;entryX=1;entryY=1;entryDx=0;entryDy=0;" parent="1" source="XXAQpd8H75MBfK3XgcK5-109" target="OCj4loIqSsVYa-qWEfAn-1" edge="1">
          <mxGeometry width="50" height="50" relative="1" as="geometry">
            <mxPoint x="558.9610000000002" y="270" as="sourcePoint" />
            <mxPoint x="430" y="190" as="targetPoint" />
          </mxGeometry>
        </mxCell>
        <mxCell id="XXAQpd8H75MBfK3XgcK5-25" value="" style="endArrow=none;html=1;rounded=1;entryX=0.25;entryY=1;entryDx=0;entryDy=0;exitX=0.5;exitY=0;exitDx=0;exitDy=0;fontSize=14;" parent="1" source="XXAQpd8H75MBfK3XgcK5-26" target="XXAQpd8H75MBfK3XgcK5-109" edge="1">
          <mxGeometry width="50" height="50" relative="1" as="geometry">
            <mxPoint x="383" y="435" as="sourcePoint" />
            <mxPoint x="452.44299999999976" y="344" as="targetPoint" />
          </mxGeometry>
        </mxCell>
        <mxCell id="XXAQpd8H75MBfK3XgcK5-26" value="&lt;div style=&quot;font-size: 14px;&quot;&gt;Crime&lt;/div&gt;&lt;div style=&quot;font-size: 14px;&quot;&gt;Scene&lt;br style=&quot;font-size: 14px;&quot;&gt;&lt;/div&gt;" style="ellipse;whiteSpace=wrap;html=1;align=center;fontSize=14;rounded=1;fillColor=#fff2cc;strokeColor=#d6b656;gradientColor=#ffd966;" parent="1" vertex="1">
          <mxGeometry x="339" y="405" width="89" height="47" as="geometry" />
        </mxCell>
        <mxCell id="XXAQpd8H75MBfK3XgcK5-27" value="" style="endArrow=none;html=1;rounded=1;entryX=0.63;entryY=1.024;entryDx=0;entryDy=0;exitX=0.449;exitY=0;exitDx=0;exitDy=0;exitPerimeter=0;entryPerimeter=0;fontSize=14;" parent="1" source="XXAQpd8H75MBfK3XgcK5-28" target="XXAQpd8H75MBfK3XgcK5-109" edge="1">
          <mxGeometry width="50" height="50" relative="1" as="geometry">
            <mxPoint x="485" y="435" as="sourcePoint" />
            <mxPoint x="465.52599999999984" y="345.48" as="targetPoint" />
          </mxGeometry>
        </mxCell>
        <mxCell id="XXAQpd8H75MBfK3XgcK5-28" value="Arrest Detail" style="ellipse;whiteSpace=wrap;html=1;align=center;fontSize=14;rounded=1;fillColor=#fff2cc;strokeColor=#d6b656;gradientColor=#ffd966;" parent="1" vertex="1">
          <mxGeometry x="453" y="445" width="89" height="47" as="geometry" />
        </mxCell>
        <mxCell id="OCj4loIqSsVYa-qWEfAn-5" value="&lt;div style=&quot;font-size: 14px;&quot;&gt;Arms&lt;/div&gt;Posession" style="ellipse;whiteSpace=wrap;html=1;align=center;fontSize=14;rounded=1;fillColor=#fff2cc;strokeColor=#d6b656;gradientColor=#ffd966;" parent="1" vertex="1">
          <mxGeometry x="95" y="-20" width="89" height="47" as="geometry" />
        </mxCell>
        <mxCell id="XXAQpd8H75MBfK3XgcK5-29" value="" style="endArrow=none;html=1;rounded=1;entryX=1;entryY=0.5;entryDx=0;entryDy=0;exitX=0;exitY=0.5;exitDx=0;exitDy=0;fontSize=14;" parent="1" source="XXAQpd8H75MBfK3XgcK5-30" target="XXAQpd8H75MBfK3XgcK5-109" edge="1">
          <mxGeometry width="50" height="50" relative="1" as="geometry">
            <mxPoint x="584" y="435" as="sourcePoint" />
            <mxPoint x="506.99999999999864" y="325" as="targetPoint" />
          </mxGeometry>
        </mxCell>
        <mxCell id="OCj4loIqSsVYa-qWEfAn-6" value="" style="endArrow=none;html=1;rounded=1;exitX=0.754;exitY=0.93;exitDx=0;exitDy=0;entryX=0.25;entryY=0;entryDx=0;entryDy=0;fontSize=14;exitPerimeter=0;" parent="1" source="OCj4loIqSsVYa-qWEfAn-5" target="XXAQpd8H75MBfK3XgcK5-19" edge="1">
          <mxGeometry relative="1" as="geometry">
            <mxPoint x="211" y="170" as="sourcePoint" />
            <mxPoint x="371" y="170" as="targetPoint" />
          </mxGeometry>
        </mxCell>
        <mxCell id="XXAQpd8H75MBfK3XgcK5-31" value="" style="endArrow=none;html=1;rounded=1;entryX=0.436;entryY=-0.016;entryDx=0;entryDy=0;exitX=0.815;exitY=0.855;exitDx=0;exitDy=0;exitPerimeter=0;fontSize=14;entryPerimeter=0;" parent="1" source="XXAQpd8H75MBfK3XgcK5-32" target="XXAQpd8H75MBfK3XgcK5-30" edge="1">
          <mxGeometry width="50" height="50" relative="1" as="geometry">
            <mxPoint x="681" y="425" as="sourcePoint" />
            <mxPoint x="493.86340641923744" y="310.81179233415423" as="targetPoint" />
          </mxGeometry>
        </mxCell>
        <mxCell id="XXAQpd8H75MBfK3XgcK5-32" value="Fine" style="ellipse;whiteSpace=wrap;html=1;align=center;fontSize=14;rounded=1;fillColor=#fff2cc;strokeColor=#d6b656;gradientColor=#ffd966;" parent="1" vertex="1">
          <mxGeometry x="530" y="237" width="89" height="47" as="geometry" />
        </mxCell>
        <mxCell id="XXAQpd8H75MBfK3XgcK5-30" value="Sentence" style="ellipse;whiteSpace=wrap;html=1;align=center;fontSize=14;rounded=1;fillColor=#fff2cc;strokeColor=#d6b656;gradientColor=#ffd966;" parent="1" vertex="1">
          <mxGeometry x="599" y="315" width="89" height="47" as="geometry" />
        </mxCell>
        <mxCell id="XXAQpd8H75MBfK3XgcK5-33" value="" style="endArrow=none;html=1;rounded=1;entryX=0;entryY=0.75;entryDx=0;entryDy=0;exitX=0.935;exitY=0.248;exitDx=0;exitDy=0;exitPerimeter=0;fontSize=14;" parent="1" source="XXAQpd8H75MBfK3XgcK5-34" target="XXAQpd8H75MBfK3XgcK5-109" edge="1">
          <mxGeometry width="50" height="50" relative="1" as="geometry">
            <mxPoint x="339" y="375" as="sourcePoint" />
            <mxPoint x="418.00000000000136" y="325" as="targetPoint" />
          </mxGeometry>
        </mxCell>
        <mxCell id="XXAQpd8H75MBfK3XgcK5-34" value="Type of crime" style="ellipse;whiteSpace=wrap;html=1;align=center;fontSize=14;rounded=1;fillColor=#fff2cc;strokeColor=#d6b656;gradientColor=#ffd966;" parent="1" vertex="1">
          <mxGeometry x="273.5" y="345" width="89" height="47" as="geometry" />
        </mxCell>
        <mxCell id="XXAQpd8H75MBfK3XgcK5-36" value="" style="endArrow=none;html=1;rounded=1;exitX=0.443;exitY=-0.003;exitDx=0;exitDy=0;exitPerimeter=0;entryX=0.218;entryY=0.925;entryDx=0;entryDy=0;entryPerimeter=0;fontSize=14;" parent="1" source="XXAQpd8H75MBfK3XgcK5-37" target="XXAQpd8H75MBfK3XgcK5-26" edge="1">
          <mxGeometry width="50" height="50" relative="1" as="geometry">
            <mxPoint x="364" y="525" as="sourcePoint" />
            <mxPoint x="363" y="465" as="targetPoint" />
          </mxGeometry>
        </mxCell>
        <mxCell id="XXAQpd8H75MBfK3XgcK5-37" value="Date" style="ellipse;whiteSpace=wrap;html=1;align=center;fontSize=14;rounded=1;fillColor=#fff2cc;strokeColor=#d6b656;gradientColor=#ffd966;" parent="1" vertex="1">
          <mxGeometry x="290" y="478" width="89" height="47" as="geometry" />
        </mxCell>
        <mxCell id="XXAQpd8H75MBfK3XgcK5-38" value="" style="endArrow=none;html=1;rounded=1;entryX=0;entryY=1;entryDx=0;entryDy=0;exitX=0.646;exitY=0.032;exitDx=0;exitDy=0;exitPerimeter=0;fontSize=14;" parent="1" source="XXAQpd8H75MBfK3XgcK5-39" target="XXAQpd8H75MBfK3XgcK5-28" edge="1">
          <mxGeometry width="50" height="50" relative="1" as="geometry">
            <mxPoint x="484" y="504" as="sourcePoint" />
            <mxPoint x="488" y="465" as="targetPoint" />
          </mxGeometry>
        </mxCell>
        <mxCell id="XXAQpd8H75MBfK3XgcK5-39" value="Date" style="ellipse;whiteSpace=wrap;html=1;align=center;fontSize=14;rounded=1;fillColor=#fff2cc;strokeColor=#d6b656;gradientColor=#ffd966;" parent="1" vertex="1">
          <mxGeometry x="387" y="525" width="89" height="47" as="geometry" />
        </mxCell>
        <mxCell id="XXAQpd8H75MBfK3XgcK5-40" value="" style="endArrow=none;html=1;rounded=1;exitX=0;exitY=0;exitDx=0;exitDy=0;entryX=0.988;entryY=0.574;entryDx=0;entryDy=0;entryPerimeter=0;fontSize=14;" parent="1" source="XXAQpd8H75MBfK3XgcK5-41" target="XXAQpd8H75MBfK3XgcK5-28" edge="1">
          <mxGeometry width="50" height="50" relative="1" as="geometry">
            <mxPoint x="524" y="553" as="sourcePoint" />
            <mxPoint x="528" y="455" as="targetPoint" />
          </mxGeometry>
        </mxCell>
        <mxCell id="XXAQpd8H75MBfK3XgcK5-41" value="Arrestor" style="ellipse;whiteSpace=wrap;html=1;align=center;fontSize=14;rounded=1;fillColor=#fff2cc;strokeColor=#d6b656;gradientColor=#ffd966;" parent="1" vertex="1">
          <mxGeometry x="573" y="485" width="89" height="47" as="geometry" />
        </mxCell>
        <mxCell id="XXAQpd8H75MBfK3XgcK5-42" value="" style="endArrow=none;html=1;rounded=1;entryX=0.635;entryY=0.983;entryDx=0;entryDy=0;exitX=0.449;exitY=0;exitDx=0;exitDy=0;exitPerimeter=0;entryPerimeter=0;fontSize=14;" parent="1" source="XXAQpd8H75MBfK3XgcK5-43" target="XXAQpd8H75MBfK3XgcK5-28" edge="1">
          <mxGeometry width="50" height="50" relative="1" as="geometry">
            <mxPoint x="454" y="602" as="sourcePoint" />
            <mxPoint x="458" y="563" as="targetPoint" />
          </mxGeometry>
        </mxCell>
        <mxCell id="XXAQpd8H75MBfK3XgcK5-43" value="Location" style="ellipse;whiteSpace=wrap;html=1;align=center;fontSize=14;rounded=1;fillColor=#fff2cc;strokeColor=#d6b656;gradientColor=#ffd966;" parent="1" vertex="1">
          <mxGeometry x="488" y="525" width="89" height="47" as="geometry" />
        </mxCell>
        <mxCell id="XXAQpd8H75MBfK3XgcK5-44" value="" style="endArrow=none;html=1;rounded=1;entryX=0.308;entryY=0.995;entryDx=0;entryDy=0;exitX=0.683;exitY=0.045;exitDx=0;exitDy=0;exitPerimeter=0;entryPerimeter=0;fontSize=14;" parent="1" source="XXAQpd8H75MBfK3XgcK5-45" target="XXAQpd8H75MBfK3XgcK5-30" edge="1">
          <mxGeometry width="50" height="50" relative="1" as="geometry">
            <mxPoint x="636.9610000000002" y="395" as="sourcePoint" />
            <mxPoint x="613" y="455" as="targetPoint" />
          </mxGeometry>
        </mxCell>
        <mxCell id="XXAQpd8H75MBfK3XgcK5-45" value="Type" style="ellipse;whiteSpace=wrap;html=1;align=center;fontSize=14;rounded=1;fillColor=#fff2cc;strokeColor=#d6b656;gradientColor=#ffd966;" parent="1" vertex="1">
          <mxGeometry x="542" y="385" width="89" height="47" as="geometry" />
        </mxCell>
        <mxCell id="XXAQpd8H75MBfK3XgcK5-46" value="" style="endArrow=none;html=1;rounded=1;entryX=0.677;entryY=0.962;entryDx=0;entryDy=0;exitX=0.439;exitY=0.004;exitDx=0;exitDy=0;exitPerimeter=0;entryPerimeter=0;fontSize=14;" parent="1" source="XXAQpd8H75MBfK3XgcK5-47" target="XXAQpd8H75MBfK3XgcK5-30" edge="1">
          <mxGeometry width="50" height="50" relative="1" as="geometry">
            <mxPoint x="732.9609999999998" y="445" as="sourcePoint" />
            <mxPoint x="713" y="480.5" as="targetPoint" />
          </mxGeometry>
        </mxCell>
        <mxCell id="XXAQpd8H75MBfK3XgcK5-47" value="Sentence Date" style="ellipse;whiteSpace=wrap;html=1;align=center;fontSize=14;rounded=1;fillColor=#fff2cc;strokeColor=#d6b656;gradientColor=#ffd966;" parent="1" vertex="1">
          <mxGeometry x="669" y="405" width="89" height="47" as="geometry" />
        </mxCell>
        <mxCell id="XXAQpd8H75MBfK3XgcK5-48" value="" style="endArrow=none;html=1;rounded=1;entryX=1.001;entryY=0.574;entryDx=0;entryDy=0;exitX=0;exitY=0;exitDx=0;exitDy=0;entryPerimeter=0;fontSize=14;" parent="1" source="XXAQpd8H75MBfK3XgcK5-49" target="XXAQpd8H75MBfK3XgcK5-30" edge="1">
          <mxGeometry width="50" height="50" relative="1" as="geometry">
            <mxPoint x="761" y="584" as="sourcePoint" />
            <mxPoint x="765" y="545" as="targetPoint" />
          </mxGeometry>
        </mxCell>
        <mxCell id="XXAQpd8H75MBfK3XgcK5-49" value="Release Date" style="ellipse;whiteSpace=wrap;html=1;align=center;fontSize=14;rounded=1;fillColor=#fff2cc;strokeColor=#d6b656;gradientColor=#ffd966;" parent="1" vertex="1">
          <mxGeometry x="723.5" y="345" width="89" height="47" as="geometry" />
        </mxCell>
        <mxCell id="XXAQpd8H75MBfK3XgcK5-50" value="" style="endArrow=none;html=1;rounded=1;entryX=0.727;entryY=0.053;entryDx=0;entryDy=0;exitX=0;exitY=1;exitDx=0;exitDy=0;entryPerimeter=0;fontSize=14;" parent="1" source="XXAQpd8H75MBfK3XgcK5-53" target="XXAQpd8H75MBfK3XgcK5-30" edge="1">
          <mxGeometry width="50" height="50" relative="1" as="geometry">
            <mxPoint x="752.961" y="485" as="sourcePoint" />
            <mxPoint x="654" y="555" as="targetPoint" />
          </mxGeometry>
        </mxCell>
        <mxCell id="XXAQpd8H75MBfK3XgcK5-53" value="Period" style="ellipse;whiteSpace=wrap;html=1;align=center;dashed=1;fontSize=14;rounded=1;fillColor=#fff2cc;strokeColor=#d6b656;gradientColor=#ffd966;" parent="1" vertex="1">
          <mxGeometry x="698" y="255" width="89" height="47" as="geometry" />
        </mxCell>
        <mxCell id="OCj4loIqSsVYa-qWEfAn-10" value="ID" style="ellipse;whiteSpace=wrap;html=1;align=center;fontStyle=4;fontSize=14;rounded=1;fillColor=#fff2cc;strokeColor=#d6b656;gradientColor=#ffd966;" parent="1" vertex="1">
          <mxGeometry x="340" y="-413" width="89" height="47" as="geometry" />
        </mxCell>
        <mxCell id="OCj4loIqSsVYa-qWEfAn-11" value="" style="endArrow=none;html=1;rounded=1;exitX=0.989;exitY=0.647;exitDx=0;exitDy=0;entryX=0.001;entryY=0.346;entryDx=0;entryDy=0;entryPerimeter=0;fontSize=14;exitPerimeter=0;" parent="1" source="OCj4loIqSsVYa-qWEfAn-10" target="s87woYfxpbsdPWMNcFb8-4" edge="1">
          <mxGeometry relative="1" as="geometry">
            <mxPoint x="445.4999999999998" y="-349.9999999999999" as="sourcePoint" />
            <mxPoint x="485.0999999999999" y="-333.5999999999998" as="targetPoint" />
          </mxGeometry>
        </mxCell>
        <mxCell id="XXAQpd8H75MBfK3XgcK5-55" value="Jail" style="ellipse;whiteSpace=wrap;html=1;align=center;fontSize=14;rounded=1;fillColor=#fff2cc;strokeColor=#d6b656;gradientColor=#ffd966;" parent="1" vertex="1">
          <mxGeometry x="-49" y="26.5" width="89" height="47" as="geometry" />
        </mxCell>
        <mxCell id="XXAQpd8H75MBfK3XgcK5-56" value="" style="endArrow=none;html=1;rounded=1;entryX=0;entryY=0.384;entryDx=0;entryDy=0;exitX=1;exitY=0.5;exitDx=0;exitDy=0;entryPerimeter=0;fontSize=14;" parent="1" source="XXAQpd8H75MBfK3XgcK5-55" target="XXAQpd8H75MBfK3XgcK5-19" edge="1">
          <mxGeometry relative="1" as="geometry">
            <mxPoint x="-139" y="220" as="sourcePoint" />
            <mxPoint x="21" y="220" as="targetPoint" />
          </mxGeometry>
        </mxCell>
        <mxCell id="OCj4loIqSsVYa-qWEfAn-13" value="" style="endArrow=none;html=1;rounded=1;exitX=1;exitY=0.5;exitDx=0;exitDy=0;entryX=0;entryY=0.5;entryDx=0;entryDy=0;fontSize=14;" parent="1" source="OCj4loIqSsVYa-qWEfAn-14" target="XXAQpd8H75MBfK3XgcK5-26" edge="1">
          <mxGeometry width="50" height="50" relative="1" as="geometry">
            <mxPoint x="298.00000000000045" y="448.5" as="sourcePoint" />
            <mxPoint x="243" y="405" as="targetPoint" />
          </mxGeometry>
        </mxCell>
        <mxCell id="OCj4loIqSsVYa-qWEfAn-14" value="Location" style="ellipse;whiteSpace=wrap;html=1;align=center;fontSize=14;rounded=1;fillColor=#fff2cc;strokeColor=#d6b656;gradientColor=#ffd966;" parent="1" vertex="1">
          <mxGeometry x="201" y="405" width="89" height="47" as="geometry" />
        </mxCell>
        <mxCell id="XXAQpd8H75MBfK3XgcK5-58" value="Police Staion" style="ellipse;whiteSpace=wrap;html=1;align=center;fontSize=14;rounded=1;fillColor=#fff2cc;strokeColor=#d6b656;gradientColor=#ffd966;" parent="1" vertex="1">
          <mxGeometry x="-219" y="56.5" width="89" height="47" as="geometry" />
        </mxCell>
        <mxCell id="XXAQpd8H75MBfK3XgcK5-59" value="" style="endArrow=none;html=1;rounded=1;entryX=0.022;entryY=0.621;entryDx=0;entryDy=0;exitX=1;exitY=0.5;exitDx=0;exitDy=0;entryPerimeter=0;fontSize=14;" parent="1" source="XXAQpd8H75MBfK3XgcK5-58" target="XXAQpd8H75MBfK3XgcK5-55" edge="1">
          <mxGeometry relative="1" as="geometry">
            <mxPoint x="-379" y="216.5" as="sourcePoint" />
            <mxPoint x="-73.20000000000005" y="56.5" as="targetPoint" />
          </mxGeometry>
        </mxCell>
        <mxCell id="XXAQpd8H75MBfK3XgcK5-60" value="Prison" style="ellipse;whiteSpace=wrap;html=1;align=center;fontSize=14;rounded=1;fillColor=#fff2cc;strokeColor=#d6b656;gradientColor=#ffd966;" parent="1" vertex="1">
          <mxGeometry x="-219" y="-23.5" width="89" height="47" as="geometry" />
        </mxCell>
        <mxCell id="XXAQpd8H75MBfK3XgcK5-61" value="" style="endArrow=none;html=1;rounded=1;entryX=0.044;entryY=0.287;entryDx=0;entryDy=0;exitX=0.971;exitY=0.664;exitDx=0;exitDy=0;entryPerimeter=0;exitPerimeter=0;fontSize=14;" parent="1" source="XXAQpd8H75MBfK3XgcK5-60" target="XXAQpd8H75MBfK3XgcK5-55" edge="1">
          <mxGeometry relative="1" as="geometry">
            <mxPoint x="-399" y="136.5" as="sourcePoint" />
            <mxPoint x="-119" y="-43.5" as="targetPoint" />
          </mxGeometry>
        </mxCell>
        <mxCell id="XXAQpd8H75MBfK3XgcK5-62" value="FIR Id" style="ellipse;whiteSpace=wrap;html=1;align=center;fontSize=14;rounded=1;fillColor=#fff2cc;strokeColor=#d6b656;gradientColor=#ffd966;" parent="1" vertex="1">
          <mxGeometry x="-339" y="96.5" width="89" height="47" as="geometry" />
        </mxCell>
        <mxCell id="XXAQpd8H75MBfK3XgcK5-63" value="" style="endArrow=none;html=1;rounded=1;entryX=0.058;entryY=0.745;entryDx=0;entryDy=0;exitX=0.949;exitY=0.265;exitDx=0;exitDy=0;exitPerimeter=0;entryPerimeter=0;fontSize=14;" parent="1" source="XXAQpd8H75MBfK3XgcK5-62" target="XXAQpd8H75MBfK3XgcK5-58" edge="1">
          <mxGeometry relative="1" as="geometry">
            <mxPoint x="-499" y="256.5" as="sourcePoint" />
            <mxPoint x="-219" y="76.5" as="targetPoint" />
          </mxGeometry>
        </mxCell>
        <mxCell id="XXAQpd8H75MBfK3XgcK5-64" value="Location" style="ellipse;whiteSpace=wrap;html=1;align=center;fontSize=14;rounded=1;fillColor=#fff2cc;strokeColor=#d6b656;gradientColor=#ffd966;" parent="1" vertex="1">
          <mxGeometry x="-333.5" y="-63.5" width="89" height="47" as="geometry" />
        </mxCell>
        <mxCell id="XXAQpd8H75MBfK3XgcK5-65" value="" style="endArrow=none;html=1;rounded=1;entryX=0.047;entryY=0.26;entryDx=0;entryDy=0;exitX=0.879;exitY=0.814;exitDx=0;exitDy=0;exitPerimeter=0;entryPerimeter=0;fontSize=14;" parent="1" source="XXAQpd8H75MBfK3XgcK5-64" target="XXAQpd8H75MBfK3XgcK5-60" edge="1">
          <mxGeometry relative="1" as="geometry">
            <mxPoint x="-489.5" y="106.5" as="sourcePoint" />
            <mxPoint x="-199" y="-53.5" as="targetPoint" />
          </mxGeometry>
        </mxCell>
        <mxCell id="OCj4loIqSsVYa-qWEfAn-48" value="&lt;div style=&quot;font-size: 14px;&quot;&gt;Previous&lt;/div&gt;&lt;div style=&quot;font-size: 14px;&quot;&gt;Crime&lt;/div&gt;" style="shape=rhombus;perimeter=rhombusPerimeter;whiteSpace=wrap;html=1;align=center;direction=east;fontSize=14;rounded=1;fillColor=#dae8fc;gradientColor=#7ea6e0;strokeColor=#6c8ebf;" parent="1" vertex="1">
          <mxGeometry x="-9.5" y="177" width="120" height="60" as="geometry" />
        </mxCell>
        <mxCell id="OCj4loIqSsVYa-qWEfAn-49" value="" style="endArrow=none;html=1;rounded=1;entryX=0.318;entryY=0.81;entryDx=0;entryDy=0;entryPerimeter=0;exitX=0.75;exitY=0.069;exitDx=0;exitDy=0;exitPerimeter=0;fontSize=14;" parent="1" target="OCj4loIqSsVYa-qWEfAn-48" edge="1">
          <mxGeometry width="50" height="50" relative="1" as="geometry">
            <mxPoint x="-82.25" y="332.75999999999976" as="sourcePoint" />
            <mxPoint x="-84.5" y="310" as="targetPoint" />
          </mxGeometry>
        </mxCell>
        <mxCell id="OCj4loIqSsVYa-qWEfAn-51" value="" style="endArrow=none;html=1;rounded=1;entryX=0.328;entryY=1.007;entryDx=0;entryDy=0;exitX=0.5;exitY=0;exitDx=0;exitDy=0;entryPerimeter=0;fontSize=14;" parent="1" source="OCj4loIqSsVYa-qWEfAn-52" target="XXAQpd8H75MBfK3XgcK5-110" edge="1">
          <mxGeometry width="50" height="50" relative="1" as="geometry">
            <mxPoint x="-184" y="460" as="sourcePoint" />
            <mxPoint x="-114.55700000000002" y="369" as="targetPoint" />
          </mxGeometry>
        </mxCell>
        <mxCell id="OCj4loIqSsVYa-qWEfAn-52" value="&lt;div style=&quot;font-size: 14px;&quot;&gt;Crime&lt;/div&gt;&lt;div style=&quot;font-size: 14px;&quot;&gt;Scene&lt;br style=&quot;font-size: 14px;&quot;&gt;&lt;/div&gt;" style="ellipse;whiteSpace=wrap;html=1;align=center;fontSize=14;direction=east;rounded=1;fillColor=#fff2cc;strokeColor=#d6b656;gradientColor=#ffd966;" parent="1" vertex="1">
          <mxGeometry x="-216" y="432" width="89" height="47" as="geometry" />
        </mxCell>
        <mxCell id="OCj4loIqSsVYa-qWEfAn-53" value="" style="endArrow=none;html=1;rounded=1;entryX=0.556;entryY=1;entryDx=0;entryDy=0;exitX=0.449;exitY=0;exitDx=0;exitDy=0;exitPerimeter=0;entryPerimeter=0;fontSize=14;" parent="1" source="OCj4loIqSsVYa-qWEfAn-54" target="XXAQpd8H75MBfK3XgcK5-110" edge="1">
          <mxGeometry width="50" height="50" relative="1" as="geometry">
            <mxPoint x="-82" y="460" as="sourcePoint" />
            <mxPoint x="-101.47399999999993" y="370.48" as="targetPoint" />
          </mxGeometry>
        </mxCell>
        <mxCell id="OCj4loIqSsVYa-qWEfAn-54" value="Arrest Detail" style="ellipse;whiteSpace=wrap;html=1;align=center;fontSize=14;direction=east;rounded=1;fillColor=#fff2cc;strokeColor=#d6b656;gradientColor=#ffd966;" parent="1" vertex="1">
          <mxGeometry x="-114" y="470" width="89" height="47" as="geometry" />
        </mxCell>
        <mxCell id="OCj4loIqSsVYa-qWEfAn-55" value="" style="endArrow=none;html=1;rounded=1;entryX=1;entryY=0.5;entryDx=0;entryDy=0;exitX=0;exitY=0.5;exitDx=0;exitDy=0;fontSize=14;" parent="1" source="OCj4loIqSsVYa-qWEfAn-58" edge="1">
          <mxGeometry width="50" height="50" relative="1" as="geometry">
            <mxPoint x="-308.50000000000864" y="391.0526315789475" as="sourcePoint" />
            <mxPoint x="-231.50000000000432" y="281.0526315789475" as="targetPoint" />
          </mxGeometry>
        </mxCell>
        <mxCell id="OCj4loIqSsVYa-qWEfAn-58" value="Sentence" style="ellipse;whiteSpace=wrap;html=1;align=center;fontSize=14;direction=east;flipV=0;flipH=1;rounded=1;fillColor=#fff2cc;strokeColor=#d6b656;gradientColor=#ffd966;" parent="1" vertex="1">
          <mxGeometry x="-231.5" y="260" width="89" height="47" as="geometry" />
        </mxCell>
        <mxCell id="OCj4loIqSsVYa-qWEfAn-59" value="" style="endArrow=none;html=1;rounded=1;entryX=-0.003;entryY=0.833;entryDx=0;entryDy=0;exitX=0.976;exitY=0.333;exitDx=0;exitDy=0;exitPerimeter=0;entryPerimeter=0;fontSize=14;" parent="1" source="OCj4loIqSsVYa-qWEfAn-60" target="XXAQpd8H75MBfK3XgcK5-110" edge="1">
          <mxGeometry width="50" height="50" relative="1" as="geometry">
            <mxPoint x="-228" y="400" as="sourcePoint" />
            <mxPoint x="-149" y="350" as="targetPoint" />
          </mxGeometry>
        </mxCell>
        <mxCell id="OCj4loIqSsVYa-qWEfAn-60" value="Type of crime" style="ellipse;whiteSpace=wrap;html=1;align=center;fontSize=14;direction=east;rounded=1;fillColor=#fff2cc;strokeColor=#d6b656;gradientColor=#ffd966;" parent="1" vertex="1">
          <mxGeometry x="-293.5" y="370" width="89" height="47" as="geometry" />
        </mxCell>
        <mxCell id="OCj4loIqSsVYa-qWEfAn-61" value="" style="endArrow=none;html=1;rounded=1;exitX=0.609;exitY=0.013;exitDx=0;exitDy=0;exitPerimeter=0;entryX=0.218;entryY=0.925;entryDx=0;entryDy=0;entryPerimeter=0;fontSize=14;" parent="1" source="OCj4loIqSsVYa-qWEfAn-62" target="OCj4loIqSsVYa-qWEfAn-52" edge="1">
          <mxGeometry width="50" height="50" relative="1" as="geometry">
            <mxPoint x="-203" y="550" as="sourcePoint" />
            <mxPoint x="-204" y="490" as="targetPoint" />
          </mxGeometry>
        </mxCell>
        <mxCell id="OCj4loIqSsVYa-qWEfAn-62" value="Date" style="ellipse;whiteSpace=wrap;html=1;align=center;fontSize=14;direction=east;rounded=1;fillColor=#fff2cc;strokeColor=#d6b656;gradientColor=#ffd966;" parent="1" vertex="1">
          <mxGeometry x="-271" y="503" width="89" height="47" as="geometry" />
        </mxCell>
        <mxCell id="OCj4loIqSsVYa-qWEfAn-63" value="" style="endArrow=none;html=1;rounded=1;entryX=0;entryY=1;entryDx=0;entryDy=0;exitX=0.646;exitY=0.032;exitDx=0;exitDy=0;exitPerimeter=0;fontSize=14;" parent="1" source="OCj4loIqSsVYa-qWEfAn-64" target="OCj4loIqSsVYa-qWEfAn-54" edge="1">
          <mxGeometry width="50" height="50" relative="1" as="geometry">
            <mxPoint x="-83" y="529" as="sourcePoint" />
            <mxPoint x="-79" y="490" as="targetPoint" />
          </mxGeometry>
        </mxCell>
        <mxCell id="OCj4loIqSsVYa-qWEfAn-64" value="Date" style="ellipse;whiteSpace=wrap;html=1;align=center;fontSize=14;direction=east;rounded=1;fillColor=#fff2cc;strokeColor=#d6b656;gradientColor=#ffd966;" parent="1" vertex="1">
          <mxGeometry x="-180" y="550" width="89" height="47" as="geometry" />
        </mxCell>
        <mxCell id="OCj4loIqSsVYa-qWEfAn-65" value="" style="endArrow=none;html=1;rounded=1;exitX=0;exitY=0;exitDx=0;exitDy=0;entryX=0.988;entryY=0.574;entryDx=0;entryDy=0;entryPerimeter=0;fontSize=14;" parent="1" source="OCj4loIqSsVYa-qWEfAn-66" target="OCj4loIqSsVYa-qWEfAn-54" edge="1">
          <mxGeometry width="50" height="50" relative="1" as="geometry">
            <mxPoint x="-43" y="578" as="sourcePoint" />
            <mxPoint x="-39" y="480" as="targetPoint" />
          </mxGeometry>
        </mxCell>
        <mxCell id="OCj4loIqSsVYa-qWEfAn-66" value="Arrestor" style="ellipse;whiteSpace=wrap;html=1;align=center;fontSize=14;direction=east;rounded=1;fillColor=#fff2cc;strokeColor=#d6b656;gradientColor=#ffd966;" parent="1" vertex="1">
          <mxGeometry x="6" y="510" width="89" height="47" as="geometry" />
        </mxCell>
        <mxCell id="OCj4loIqSsVYa-qWEfAn-67" value="" style="endArrow=none;html=1;rounded=1;entryX=0.635;entryY=0.983;entryDx=0;entryDy=0;exitX=0.449;exitY=0;exitDx=0;exitDy=0;exitPerimeter=0;entryPerimeter=0;fontSize=14;" parent="1" source="OCj4loIqSsVYa-qWEfAn-68" target="OCj4loIqSsVYa-qWEfAn-54" edge="1">
          <mxGeometry width="50" height="50" relative="1" as="geometry">
            <mxPoint x="-113" y="627" as="sourcePoint" />
            <mxPoint x="-109" y="588" as="targetPoint" />
          </mxGeometry>
        </mxCell>
        <mxCell id="OCj4loIqSsVYa-qWEfAn-68" value="Location" style="ellipse;whiteSpace=wrap;html=1;align=center;fontSize=14;direction=east;rounded=1;fillColor=#fff2cc;strokeColor=#d6b656;gradientColor=#ffd966;" parent="1" vertex="1">
          <mxGeometry x="-79" y="550" width="89" height="47" as="geometry" />
        </mxCell>
        <mxCell id="OCj4loIqSsVYa-qWEfAn-71" value="" style="endArrow=none;html=1;rounded=1;entryX=0.798;entryY=0.902;entryDx=0;entryDy=0;exitX=0.044;exitY=0.308;exitDx=0;exitDy=0;exitPerimeter=0;entryPerimeter=0;fontSize=14;" parent="1" source="OCj4loIqSsVYa-qWEfAn-72" target="OCj4loIqSsVYa-qWEfAn-58" edge="1">
          <mxGeometry width="50" height="50" relative="1" as="geometry">
            <mxPoint x="-196.13699999999972" y="392.72000000000116" as="sourcePoint" />
            <mxPoint x="-176.17599999999993" y="428.22000000000116" as="targetPoint" />
          </mxGeometry>
        </mxCell>
        <mxCell id="OCj4loIqSsVYa-qWEfAn-72" value="Sentence Date" style="ellipse;whiteSpace=wrap;html=1;align=center;fontSize=14;direction=east;flipV=0;flipH=1;rounded=1;fillColor=#fff2cc;strokeColor=#d6b656;gradientColor=#ffd966;" parent="1" vertex="1">
          <mxGeometry x="-339" y="300" width="89" height="47" as="geometry" />
        </mxCell>
        <mxCell id="OCj4loIqSsVYa-qWEfAn-73" value="" style="endArrow=none;html=1;rounded=1;entryX=0.94;entryY=0.25;entryDx=0;entryDy=0;entryPerimeter=0;exitX=0.018;exitY=0.639;exitDx=0;exitDy=0;exitPerimeter=0;fontSize=14;" parent="1" source="OCj4loIqSsVYa-qWEfAn-74" target="OCj4loIqSsVYa-qWEfAn-58" edge="1">
          <mxGeometry width="50" height="50" relative="1" as="geometry">
            <mxPoint x="-259" y="260" as="sourcePoint" />
            <mxPoint x="-170.77440641926205" y="484.08000000000084" as="targetPoint" />
          </mxGeometry>
        </mxCell>
        <mxCell id="OCj4loIqSsVYa-qWEfAn-74" value="Release Date" style="ellipse;whiteSpace=wrap;html=1;align=center;fontSize=14;direction=east;flipV=0;flipH=1;rounded=1;fillColor=#fff2cc;strokeColor=#d6b656;gradientColor=#ffd966;" parent="1" vertex="1">
          <mxGeometry x="-360" y="220" width="100" height="57" as="geometry" />
        </mxCell>
        <mxCell id="OCj4loIqSsVYa-qWEfAn-75" value="" style="endArrow=none;html=1;rounded=1;entryX=0.5;entryY=0;entryDx=0;entryDy=0;exitX=0.379;exitY=0.975;exitDx=0;exitDy=0;exitPerimeter=0;fontSize=14;" parent="1" source="OCj4loIqSsVYa-qWEfAn-76" target="OCj4loIqSsVYa-qWEfAn-58" edge="1">
          <mxGeometry width="50" height="50" relative="1" as="geometry">
            <mxPoint x="-206.92578152033207" y="465.7600000000002" as="sourcePoint" />
            <mxPoint x="-107.96478152033205" y="535.7600000000002" as="targetPoint" />
          </mxGeometry>
        </mxCell>
        <mxCell id="OCj4loIqSsVYa-qWEfAn-76" value="Period" style="ellipse;whiteSpace=wrap;html=1;align=center;dashed=1;direction=east;flipV=0;flipH=1;fontSize=14;rounded=1;fillColor=#fff2cc;strokeColor=#d6b656;gradientColor=#ffd966;" parent="1" vertex="1">
          <mxGeometry x="-258.5" y="180" width="89" height="47" as="geometry" />
        </mxCell>
        <mxCell id="OCj4loIqSsVYa-qWEfAn-77" value="" style="endArrow=none;html=1;rounded=1;exitX=0.98;exitY=0.394;exitDx=0;exitDy=0;entryX=0;entryY=0.5;entryDx=0;entryDy=0;exitPerimeter=0;fontSize=14;" parent="1" source="OCj4loIqSsVYa-qWEfAn-78" target="OCj4loIqSsVYa-qWEfAn-52" edge="1">
          <mxGeometry width="50" height="50" relative="1" as="geometry">
            <mxPoint x="-324" y="492" as="sourcePoint" />
            <mxPoint x="-324" y="430" as="targetPoint" />
          </mxGeometry>
        </mxCell>
        <mxCell id="OCj4loIqSsVYa-qWEfAn-78" value="Location" style="ellipse;whiteSpace=wrap;html=1;align=center;fontSize=14;direction=east;rounded=1;fillColor=#fff2cc;strokeColor=#d6b656;gradientColor=#ffd966;" parent="1" vertex="1">
          <mxGeometry x="-349" y="440" width="89" height="47" as="geometry" />
        </mxCell>
        <mxCell id="OCj4loIqSsVYa-qWEfAn-80" value="" style="endArrow=none;html=1;rounded=1;entryX=0.018;entryY=0.976;entryDx=0;entryDy=0;exitX=0.678;exitY=0.157;exitDx=0;exitDy=0;exitPerimeter=0;entryPerimeter=0;fontSize=14;" parent="1" source="OCj4loIqSsVYa-qWEfAn-48" target="XXAQpd8H75MBfK3XgcK5-19" edge="1">
          <mxGeometry width="50" height="50" relative="1" as="geometry">
            <mxPoint x="-72" y="343" as="sourcePoint" />
            <mxPoint x="54" y="249" as="targetPoint" />
          </mxGeometry>
        </mxCell>
        <mxCell id="OCj4loIqSsVYa-qWEfAn-81" value="" style="endArrow=none;html=1;rounded=1;exitX=0.958;exitY=0.702;exitDx=0;exitDy=0;fontSize=14;entryX=0.006;entryY=0.409;entryDx=0;entryDy=0;entryPerimeter=0;exitPerimeter=0;" parent="1" source="OCj4loIqSsVYa-qWEfAn-82" target="OCj4loIqSsVYa-qWEfAn-58" edge="1">
          <mxGeometry width="50" height="50" relative="1" as="geometry">
            <mxPoint x="-197.26200000000017" y="226.8000000000011" as="sourcePoint" />
            <mxPoint x="-140" y="280" as="targetPoint" />
          </mxGeometry>
        </mxCell>
        <mxCell id="OCj4loIqSsVYa-qWEfAn-82" value="Type" style="ellipse;whiteSpace=wrap;html=1;align=center;fontSize=14;direction=east;flipV=0;flipH=1;rounded=1;fillColor=#fff2cc;strokeColor=#d6b656;gradientColor=#ffd966;" parent="1" vertex="1">
          <mxGeometry x="-125" y="233" width="89" height="40" as="geometry" />
        </mxCell>
        <mxCell id="OCj4loIqSsVYa-qWEfAn-83" value="" style="endArrow=none;html=1;rounded=1;entryX=0.41;entryY=1;entryDx=0;entryDy=0;exitX=0.022;exitY=0.04;exitDx=0;exitDy=0;entryPerimeter=0;exitPerimeter=0;fontSize=14;" parent="1" source="XXAQpd8H75MBfK3XgcK5-110" target="OCj4loIqSsVYa-qWEfAn-58" edge="1">
          <mxGeometry width="50" height="50" relative="1" as="geometry">
            <mxPoint x="-123.01199999999994" y="330.55999999999995" as="sourcePoint" />
            <mxPoint x="-139" y="280" as="targetPoint" />
          </mxGeometry>
        </mxCell>
        <mxCell id="XXAQpd8H75MBfK3XgcK5-69" value="Commits" style="shape=rhombus;perimeter=rhombusPerimeter;whiteSpace=wrap;html=1;align=center;fontSize=14;rounded=1;fillColor=#dae8fc;gradientColor=#7ea6e0;strokeColor=#6c8ebf;" parent="1" vertex="1">
          <mxGeometry x="239" y="-203" width="120" height="60" as="geometry" />
        </mxCell>
        <mxCell id="XXAQpd8H75MBfK3XgcK5-71" value="" style="endArrow=none;html=1;rounded=1;exitX=0;exitY=0.75;exitDx=0;exitDy=0;entryX=0.5;entryY=0;entryDx=0;entryDy=0;fontSize=14;" parent="1" source="s87woYfxpbsdPWMNcFb8-4" target="XXAQpd8H75MBfK3XgcK5-69" edge="1">
          <mxGeometry relative="1" as="geometry">
            <mxPoint x="333.5" y="-260" as="sourcePoint" />
            <mxPoint x="280" y="-20" as="targetPoint" />
          </mxGeometry>
        </mxCell>
        <mxCell id="XXAQpd8H75MBfK3XgcK5-75" value="" style="endArrow=none;html=1;rounded=1;exitX=0.5;exitY=1;exitDx=0;exitDy=0;entryX=0.641;entryY=0.009;entryDx=0;entryDy=0;entryPerimeter=0;fontSize=14;" parent="1" source="XXAQpd8H75MBfK3XgcK5-69" target="XXAQpd8H75MBfK3XgcK5-19" edge="1">
          <mxGeometry relative="1" as="geometry">
            <mxPoint x="80" y="60" as="sourcePoint" />
            <mxPoint x="240" y="60" as="targetPoint" />
          </mxGeometry>
        </mxCell>
        <mxCell id="XXAQpd8H75MBfK3XgcK5-77" value="Family" style="shape=rhombus;perimeter=rhombusPerimeter;whiteSpace=wrap;html=1;align=center;fontSize=14;rounded=1;fillColor=#dae8fc;gradientColor=#7ea6e0;strokeColor=#6c8ebf;" parent="1" vertex="1">
          <mxGeometry x="201" y="-350" width="120" height="60" as="geometry" />
        </mxCell>
        <mxCell id="XXAQpd8H75MBfK3XgcK5-78" value="" style="endArrow=none;html=1;rounded=1;exitX=1;exitY=0.5;exitDx=0;exitDy=0;entryX=0;entryY=0.5;entryDx=0;entryDy=0;fontSize=14;" parent="1" source="XXAQpd8H75MBfK3XgcK5-77" target="s87woYfxpbsdPWMNcFb8-4" edge="1">
          <mxGeometry relative="1" as="geometry">
            <mxPoint x="340" y="-210" as="sourcePoint" />
            <mxPoint x="283.5" y="-290" as="targetPoint" />
          </mxGeometry>
        </mxCell>
        <mxCell id="XXAQpd8H75MBfK3XgcK5-84" value="Father" style="ellipse;whiteSpace=wrap;html=1;align=center;fontSize=14;rounded=1;fillColor=#fff2cc;strokeColor=#d6b656;gradientColor=#ffd966;" parent="1" vertex="1">
          <mxGeometry x="-38" y="-501.5" width="89" height="47" as="geometry" />
        </mxCell>
        <mxCell id="XXAQpd8H75MBfK3XgcK5-103" value="" style="endArrow=none;html=1;rounded=1;exitX=1;exitY=0.5;exitDx=0;exitDy=0;entryX=0;entryY=1;entryDx=0;entryDy=0;fontSize=14;" parent="1" source="OCj4loIqSsVYa-qWEfAn-99" target="8P-ecK4_4hKFCZeTpaZI-10" edge="1">
          <mxGeometry relative="1" as="geometry">
            <mxPoint x="-158.5" y="-229.99999999999977" as="sourcePoint" />
            <mxPoint x="-125" y="-190" as="targetPoint" />
          </mxGeometry>
        </mxCell>
        <mxCell id="XXAQpd8H75MBfK3XgcK5-85" value="Mother" style="ellipse;whiteSpace=wrap;html=1;align=center;fontSize=14;rounded=1;fillColor=#fff2cc;strokeColor=#d6b656;gradientColor=#ffd966;" parent="1" vertex="1">
          <mxGeometry x="190" y="-501.5" width="89" height="47" as="geometry" />
        </mxCell>
        <mxCell id="OCj4loIqSsVYa-qWEfAn-86" value="" style="endArrow=none;html=1;rounded=1;exitX=0.797;exitY=0.892;exitDx=0;exitDy=0;exitPerimeter=0;entryX=0;entryY=0;entryDx=0;entryDy=0;fontSize=14;" parent="1" source="XXAQpd8H75MBfK3XgcK5-84" target="8P-ecK4_4hKFCZeTpaZI-6" edge="1">
          <mxGeometry relative="1" as="geometry">
            <mxPoint x="110" y="-390" as="sourcePoint" />
            <mxPoint x="66.90000000000009" y="-449.8800000000001" as="targetPoint" />
          </mxGeometry>
        </mxCell>
        <mxCell id="XXAQpd8H75MBfK3XgcK5-86" value="" style="endArrow=none;html=1;rounded=1;entryX=0.5;entryY=1;entryDx=0;entryDy=0;exitX=0.5;exitY=0;exitDx=0;exitDy=0;fontSize=14;" parent="1" source="XXAQpd8H75MBfK3XgcK5-88" target="8P-ecK4_4hKFCZeTpaZI-9" edge="1">
          <mxGeometry relative="1" as="geometry">
            <mxPoint x="12" y="-140" as="sourcePoint" />
            <mxPoint x="100" y="-170" as="targetPoint" />
          </mxGeometry>
        </mxCell>
        <mxCell id="OCj4loIqSsVYa-qWEfAn-87" value="" style="endArrow=none;html=1;rounded=1;entryX=0.221;entryY=0.919;entryDx=0;entryDy=0;entryPerimeter=0;fontSize=14;exitX=1;exitY=0;exitDx=0;exitDy=0;" parent="1" source="8P-ecK4_4hKFCZeTpaZI-6" target="XXAQpd8H75MBfK3XgcK5-85" edge="1">
          <mxGeometry relative="1" as="geometry">
            <mxPoint x="170" y="-430" as="sourcePoint" />
            <mxPoint x="150" y="-474" as="targetPoint" />
          </mxGeometry>
        </mxCell>
        <mxCell id="XXAQpd8H75MBfK3XgcK5-88" value="Name" style="ellipse;shape=doubleEllipse;margin=3;whiteSpace=wrap;html=1;align=center;fontSize=14;rounded=1;fillColor=#fff2cc;strokeColor=#d6b656;gradientColor=#ffd966;" parent="1" vertex="1">
          <mxGeometry x="89.5" y="-160" width="89" height="47" as="geometry" />
        </mxCell>
        <mxCell id="XXAQpd8H75MBfK3XgcK5-89" value="Name" style="ellipse;whiteSpace=wrap;html=1;align=center;fontSize=14;rounded=1;fillColor=#fff2cc;strokeColor=#d6b656;gradientColor=#ffd966;" parent="1" vertex="1">
          <mxGeometry x="-132.5" y="-580" width="89" height="47" as="geometry" />
        </mxCell>
        <mxCell id="XXAQpd8H75MBfK3XgcK5-90" value="" style="endArrow=none;html=1;rounded=1;exitX=0.762;exitY=0.928;exitDx=0;exitDy=0;exitPerimeter=0;fontSize=14;" parent="1" source="XXAQpd8H75MBfK3XgcK5-89" edge="1">
          <mxGeometry relative="1" as="geometry">
            <mxPoint x="34" y="-460" as="sourcePoint" />
            <mxPoint x="-30" y="-490" as="targetPoint" />
          </mxGeometry>
        </mxCell>
        <mxCell id="XXAQpd8H75MBfK3XgcK5-91" value="Occupation" style="ellipse;whiteSpace=wrap;html=1;align=center;fontSize=14;rounded=1;fillColor=#fff2cc;strokeColor=#d6b656;gradientColor=#ffd966;" parent="1" vertex="1">
          <mxGeometry x="29" y="-580" width="89" height="47" as="geometry" />
        </mxCell>
        <mxCell id="XXAQpd8H75MBfK3XgcK5-92" value="" style="endArrow=none;html=1;rounded=1;exitX=0.428;exitY=0.988;exitDx=0;exitDy=0;exitPerimeter=0;entryX=1;entryY=0;entryDx=0;entryDy=0;fontSize=14;" parent="1" source="XXAQpd8H75MBfK3XgcK5-91" target="XXAQpd8H75MBfK3XgcK5-84" edge="1">
          <mxGeometry relative="1" as="geometry">
            <mxPoint x="146.5" y="-480" as="sourcePoint" />
            <mxPoint x="102.5" y="-530" as="targetPoint" />
          </mxGeometry>
        </mxCell>
        <mxCell id="OCj4loIqSsVYa-qWEfAn-93" value="Name" style="ellipse;whiteSpace=wrap;html=1;align=center;fontSize=14;rounded=1;fillColor=#fff2cc;strokeColor=#d6b656;gradientColor=#ffd966;" parent="1" vertex="1">
          <mxGeometry x="130" y="-580" width="89" height="47" as="geometry" />
        </mxCell>
        <mxCell id="OCj4loIqSsVYa-qWEfAn-94" value="" style="endArrow=none;html=1;rounded=1;entryX=0;entryY=0;entryDx=0;entryDy=0;fontSize=14;" parent="1" target="XXAQpd8H75MBfK3XgcK5-85" edge="1">
          <mxGeometry relative="1" as="geometry">
            <mxPoint x="175" y="-530" as="sourcePoint" />
            <mxPoint x="230" y="-518" as="targetPoint" />
          </mxGeometry>
        </mxCell>
        <mxCell id="OCj4loIqSsVYa-qWEfAn-95" value="Occupation" style="ellipse;whiteSpace=wrap;html=1;align=center;fontSize=14;rounded=1;fillColor=#fff2cc;strokeColor=#d6b656;gradientColor=#ffd966;" parent="1" vertex="1">
          <mxGeometry x="260" y="-580" width="89" height="47" as="geometry" />
        </mxCell>
        <mxCell id="OCj4loIqSsVYa-qWEfAn-96" value="" style="endArrow=none;html=1;rounded=1;exitX=0.5;exitY=1;exitDx=0;exitDy=0;entryX=1;entryY=0;entryDx=0;entryDy=0;fontSize=14;" parent="1" source="OCj4loIqSsVYa-qWEfAn-95" target="XXAQpd8H75MBfK3XgcK5-85" edge="1">
          <mxGeometry relative="1" as="geometry">
            <mxPoint x="386.5" y="-490" as="sourcePoint" />
            <mxPoint x="278" y="-517" as="targetPoint" />
          </mxGeometry>
        </mxCell>
        <mxCell id="XXAQpd8H75MBfK3XgcK5-97" value="Name" style="ellipse;whiteSpace=wrap;html=1;align=center;fontSize=14;rounded=1;fillColor=#fff2cc;strokeColor=#d6b656;gradientColor=#ffd966;" parent="1" vertex="1">
          <mxGeometry x="-280" y="-333.5" width="89" height="47" as="geometry" />
        </mxCell>
        <mxCell id="XXAQpd8H75MBfK3XgcK5-98" value="" style="endArrow=none;html=1;rounded=1;exitX=1;exitY=0.5;exitDx=0;exitDy=0;entryX=0;entryY=0.5;entryDx=0;entryDy=0;fontSize=14;" parent="1" source="XXAQpd8H75MBfK3XgcK5-97" target="8P-ecK4_4hKFCZeTpaZI-7" edge="1">
          <mxGeometry relative="1" as="geometry">
            <mxPoint x="-95.75" y="-250" as="sourcePoint" />
            <mxPoint x="-142.5" y="-310" as="targetPoint" />
          </mxGeometry>
        </mxCell>
        <mxCell id="XXAQpd8H75MBfK3XgcK5-99" value="Occupation" style="ellipse;whiteSpace=wrap;html=1;align=center;fontSize=14;rounded=1;fillColor=#fff2cc;strokeColor=#d6b656;gradientColor=#ffd966;" parent="1" vertex="1">
          <mxGeometry x="-214" y="-410" width="89" height="47" as="geometry" />
        </mxCell>
        <mxCell id="XXAQpd8H75MBfK3XgcK5-100" value="" style="endArrow=none;html=1;rounded=1;exitX=0.656;exitY=0.963;exitDx=0;exitDy=0;exitPerimeter=0;entryX=0.18;entryY=0.13;entryDx=0;entryDy=0;entryPerimeter=0;fontSize=14;" parent="1" source="XXAQpd8H75MBfK3XgcK5-99" target="8P-ecK4_4hKFCZeTpaZI-7" edge="1">
          <mxGeometry relative="1" as="geometry">
            <mxPoint x="-9.25" y="-304" as="sourcePoint" />
            <mxPoint x="-122.60000000000014" y="-340" as="targetPoint" />
          </mxGeometry>
        </mxCell>
        <mxCell id="OCj4loIqSsVYa-qWEfAn-99" value="Name" style="ellipse;shape=doubleEllipse;margin=3;whiteSpace=wrap;html=1;align=center;fontSize=14;rounded=1;fillColor=#fff2cc;strokeColor=#d6b656;gradientColor=#ffd966;" parent="1" vertex="1">
          <mxGeometry x="-240" y="-190" width="89" height="47" as="geometry" />
        </mxCell>
        <mxCell id="XXAQpd8H75MBfK3XgcK5-109" value="Current Crime record" style="rounded=1;arcSize=10;whiteSpace=wrap;html=1;align=center;fontSize=14;fillColor=#d5e8d4;strokeColor=#82b366;gradientColor=#97d077;" parent="1" vertex="1">
          <mxGeometry x="400" y="298.5" width="100" height="60" as="geometry" />
        </mxCell>
        <mxCell id="XXAQpd8H75MBfK3XgcK5-110" value="Previous Crime record" style="rounded=1;arcSize=10;whiteSpace=wrap;html=1;align=center;fontSize=14;fillColor=#d5e8d4;strokeColor=#82b366;gradientColor=#97d077;" parent="1" vertex="1">
          <mxGeometry x="-165" y="320" width="100" height="60" as="geometry" />
        </mxCell>
        <mxCell id="XXAQpd8H75MBfK3XgcK5-111" value="" style="endArrow=none;html=1;rounded=1;entryX=0.001;entryY=0.379;entryDx=0;entryDy=0;exitX=1;exitY=0.5;exitDx=0;exitDy=0;entryPerimeter=0;fontSize=14;" parent="1" source="XXAQpd8H75MBfK3XgcK5-115" target="XXAQpd8H75MBfK3XgcK5-109" edge="1">
          <mxGeometry width="50" height="50" relative="1" as="geometry">
            <mxPoint x="315.7149999999999" y="304.9200000000001" as="sourcePoint" />
            <mxPoint x="362.5" y="285" as="targetPoint" />
          </mxGeometry>
        </mxCell>
        <mxCell id="XXAQpd8H75MBfK3XgcK5-115" value="Victim" style="ellipse;shape=doubleEllipse;margin=3;whiteSpace=wrap;html=1;align=center;fontSize=14;rounded=1;fillColor=#fff2cc;strokeColor=#d6b656;gradientColor=#ffd966;" parent="1" vertex="1">
          <mxGeometry x="239" y="275" width="89" height="47" as="geometry" />
        </mxCell>
        <mxCell id="XXAQpd8H75MBfK3XgcK5-116" value="" style="endArrow=none;html=1;rounded=1;entryX=1;entryY=0.5;entryDx=0;entryDy=0;exitX=1;exitY=0.5;exitDx=0;exitDy=0;fontSize=14;" parent="1" source="XXAQpd8H75MBfK3XgcK5-117" target="XXAQpd8H75MBfK3XgcK5-110" edge="1">
          <mxGeometry width="50" height="50" relative="1" as="geometry">
            <mxPoint x="83.21499999999992" y="344.9200000000001" as="sourcePoint" />
            <mxPoint x="171" y="355" as="targetPoint" />
          </mxGeometry>
        </mxCell>
        <mxCell id="XXAQpd8H75MBfK3XgcK5-117" value="Victim" style="ellipse;shape=doubleEllipse;margin=3;whiteSpace=wrap;html=1;align=center;fontSize=14;rounded=1;fillColor=#fff2cc;strokeColor=#d6b656;gradientColor=#ffd966;" parent="1" vertex="1">
          <mxGeometry x="-9" y="325" width="89" height="47" as="geometry" />
        </mxCell>
        <mxCell id="8P-ecK4_4hKFCZeTpaZI-4" value="&lt;div style=&quot;font-size: 14px;&quot;&gt;Threat&lt;/div&gt;&lt;div style=&quot;font-size: 14px;&quot;&gt;Level&lt;br style=&quot;font-size: 14px;&quot;&gt;&lt;/div&gt;" style="ellipse;whiteSpace=wrap;html=1;align=center;fontSize=14;rounded=1;fillColor=#fff2cc;strokeColor=#d6b656;gradientColor=#ffd966;" parent="1" vertex="1">
          <mxGeometry x="656.5" y="-470" width="89" height="47" as="geometry" />
        </mxCell>
        <mxCell id="8P-ecK4_4hKFCZeTpaZI-5" value="" style="endArrow=none;html=1;rounded=1;exitX=0.109;exitY=0.826;exitDx=0;exitDy=0;fontSize=14;entryX=0.833;entryY=0.01;entryDx=0;entryDy=0;entryPerimeter=0;exitPerimeter=0;" parent="1" source="8P-ecK4_4hKFCZeTpaZI-4" target="s87woYfxpbsdPWMNcFb8-4" edge="1">
          <mxGeometry width="50" height="50" relative="1" as="geometry">
            <mxPoint x="692" y="-420" as="sourcePoint" />
            <mxPoint x="570" y="-350" as="targetPoint" />
          </mxGeometry>
        </mxCell>
        <mxCell id="G-IaVoQegH4G5O4tXOr9-6" value="&lt;u style=&quot;font-size: 14px;&quot;&gt;Crime ID&lt;/u&gt;" style="ellipse;whiteSpace=wrap;html=1;fontSize=14;fillColor=#fff2cc;strokeColor=#d6b656;gradientColor=#ffd966;" parent="1" vertex="1">
          <mxGeometry x="330" y="227" width="79.5" height="46" as="geometry" />
        </mxCell>
        <mxCell id="G-IaVoQegH4G5O4tXOr9-7" value="" style="endArrow=none;html=1;rounded=0;entryX=0.5;entryY=1;entryDx=0;entryDy=0;exitX=0.163;exitY=-0.008;exitDx=0;exitDy=0;exitPerimeter=0;" parent="1" source="XXAQpd8H75MBfK3XgcK5-109" target="G-IaVoQegH4G5O4tXOr9-6" edge="1">
          <mxGeometry width="50" height="50" relative="1" as="geometry">
            <mxPoint x="340" y="300" as="sourcePoint" />
            <mxPoint x="390" y="250" as="targetPoint" />
          </mxGeometry>
        </mxCell>
        <mxCell id="8P-ecK4_4hKFCZeTpaZI-7" value="Consort" style="ellipse;whiteSpace=wrap;html=1;align=center;fillColor=#fff2cc;strokeColor=#d6b656;gradientColor=#ffd966;" parent="1" vertex="1">
          <mxGeometry x="-138" y="-336.5" width="100" height="50" as="geometry" />
        </mxCell>
        <mxCell id="8P-ecK4_4hKFCZeTpaZI-6" value="Parents" style="ellipse;whiteSpace=wrap;html=1;align=center;fillColor=#fff2cc;strokeColor=#d6b656;gradientColor=#ffd966;" parent="1" vertex="1">
          <mxGeometry x="80" y="-443" width="100" height="50" as="geometry" />
        </mxCell>
        <mxCell id="G-IaVoQegH4G5O4tXOr9-8" value="Crime ID" style="ellipse;whiteSpace=wrap;html=1;fontStyle=4;fontSize=14;fillColor=#fff2cc;strokeColor=#d6b656;gradientColor=#ffd966;" parent="1" vertex="1">
          <mxGeometry x="15.5" y="261" width="79.5" height="46" as="geometry" />
        </mxCell>
        <mxCell id="G-IaVoQegH4G5O4tXOr9-9" value="" style="endArrow=none;html=1;rounded=0;entryX=0;entryY=1;entryDx=0;entryDy=0;exitX=0.163;exitY=-0.008;exitDx=0;exitDy=0;exitPerimeter=0;" parent="1" target="G-IaVoQegH4G5O4tXOr9-8" edge="1">
          <mxGeometry width="50" height="50" relative="1" as="geometry">
            <mxPoint x="-65" y="334" as="sourcePoint" />
            <mxPoint x="-91" y="286" as="targetPoint" />
          </mxGeometry>
        </mxCell>
        <mxCell id="8P-ecK4_4hKFCZeTpaZI-9" value="Children" style="ellipse;whiteSpace=wrap;html=1;align=center;fillColor=#fff2cc;strokeColor=#d6b656;gradientColor=#ffd966;" parent="1" vertex="1">
          <mxGeometry x="84" y="-250" width="100" height="50" as="geometry" />
        </mxCell>
        <mxCell id="8P-ecK4_4hKFCZeTpaZI-10" value="Siblings" style="ellipse;whiteSpace=wrap;html=1;align=center;fillColor=#fff2cc;strokeColor=#d6b656;gradientColor=#ffd966;" parent="1" vertex="1">
          <mxGeometry x="-94" y="-250" width="100" height="50" as="geometry" />
        </mxCell>
        <mxCell id="8P-ecK4_4hKFCZeTpaZI-11" value="Family" style="rounded=1;arcSize=10;whiteSpace=wrap;html=1;align=center;fillColor=#d5e8d4;strokeColor=#82b366;gradientColor=#97d077;" parent="1" vertex="1">
          <mxGeometry x="29" y="-343.25" width="100" height="46.5" as="geometry" />
        </mxCell>
        <mxCell id="8P-ecK4_4hKFCZeTpaZI-12" value="" style="endArrow=none;html=1;rounded=0;entryX=0.012;entryY=0.971;entryDx=0;entryDy=0;exitX=0.698;exitY=0.046;exitDx=0;exitDy=0;exitPerimeter=0;entryPerimeter=0;" parent="1" source="8P-ecK4_4hKFCZeTpaZI-10" target="8P-ecK4_4hKFCZeTpaZI-11" edge="1">
          <mxGeometry relative="1" as="geometry">
            <mxPoint x="-23" y="-249" as="sourcePoint" />
            <mxPoint x="90" y="-280" as="targetPoint" />
          </mxGeometry>
        </mxCell>
        <mxCell id="8P-ecK4_4hKFCZeTpaZI-13" value="" style="endArrow=none;html=1;rounded=0;entryX=0;entryY=0.5;entryDx=0;entryDy=0;exitX=0.993;exitY=0.545;exitDx=0;exitDy=0;exitPerimeter=0;" parent="1" source="8P-ecK4_4hKFCZeTpaZI-7" target="8P-ecK4_4hKFCZeTpaZI-11" edge="1">
          <mxGeometry relative="1" as="geometry">
            <mxPoint x="-38" y="-291.75" as="sourcePoint" />
            <mxPoint x="17" y="-334.75" as="targetPoint" />
          </mxGeometry>
        </mxCell>
        <mxCell id="8P-ecK4_4hKFCZeTpaZI-14" value="" style="endArrow=none;html=1;rounded=0;entryX=0.045;entryY=0.513;entryDx=0;entryDy=0;exitX=1;exitY=0.5;exitDx=0;exitDy=0;entryPerimeter=0;" parent="1" source="8P-ecK4_4hKFCZeTpaZI-11" target="XXAQpd8H75MBfK3XgcK5-77" edge="1">
          <mxGeometry relative="1" as="geometry">
            <mxPoint x="-4" y="-228" as="sourcePoint" />
            <mxPoint x="51" y="-271" as="targetPoint" />
          </mxGeometry>
        </mxCell>
        <mxCell id="8P-ecK4_4hKFCZeTpaZI-15" value="" style="endArrow=none;html=1;rounded=0;entryX=0.75;entryY=1;entryDx=0;entryDy=0;exitX=0.5;exitY=0;exitDx=0;exitDy=0;" parent="1" source="8P-ecK4_4hKFCZeTpaZI-9" target="8P-ecK4_4hKFCZeTpaZI-11" edge="1">
          <mxGeometry relative="1" as="geometry">
            <mxPoint x="6" y="-218" as="sourcePoint" />
            <mxPoint x="61" y="-261" as="targetPoint" />
          </mxGeometry>
        </mxCell>
        <mxCell id="8P-ecK4_4hKFCZeTpaZI-16" value="" style="endArrow=none;html=1;rounded=0;entryX=0.452;entryY=0.988;entryDx=0;entryDy=0;exitX=0.75;exitY=0;exitDx=0;exitDy=0;entryPerimeter=0;" parent="1" source="8P-ecK4_4hKFCZeTpaZI-11" target="8P-ecK4_4hKFCZeTpaZI-6" edge="1">
          <mxGeometry relative="1" as="geometry">
            <mxPoint x="16" y="-208" as="sourcePoint" />
            <mxPoint x="71" y="-251" as="targetPoint" />
          </mxGeometry>
        </mxCell>
        <mxCell id="ieUK7-Vohn5KHJCR6Gfw-1" value="Name" style="ellipse;whiteSpace=wrap;html=1;align=center;fontSize=14;rounded=1;fillColor=#fff2cc;strokeColor=#d6b656;gradientColor=#ffd966;" parent="1" vertex="1">
          <mxGeometry x="636.5" y="-50" width="89" height="47" as="geometry" />
        </mxCell>
        <mxCell id="ieUK7-Vohn5KHJCR6Gfw-2" value="Name" style="ellipse;whiteSpace=wrap;html=1;align=center;fontSize=14;rounded=1;fillColor=#fff2cc;strokeColor=#d6b656;gradientColor=#ffd966;" parent="1" vertex="1">
          <mxGeometry x="290" y="-60" width="89" height="47" as="geometry" />
        </mxCell>
        <mxCell id="ieUK7-Vohn5KHJCR6Gfw-3" value="" style="endArrow=none;html=1;rounded=1;entryX=0;entryY=1;entryDx=0;entryDy=0;exitX=1;exitY=0;exitDx=0;exitDy=0;fontSize=14;" parent="1" source="ieUK7-Vohn5KHJCR6Gfw-2" target="XXAQpd8H75MBfK3XgcK5-12" edge="1">
          <mxGeometry width="50" height="50" relative="1" as="geometry">
            <mxPoint x="457" y="-38" as="sourcePoint" />
            <mxPoint x="464" y="-73" as="targetPoint" />
          </mxGeometry>
        </mxCell>
        <mxCell id="ieUK7-Vohn5KHJCR6Gfw-4" value="" style="endArrow=none;html=1;rounded=1;entryX=0.922;entryY=0.794;entryDx=0;entryDy=0;exitX=0.252;exitY=0.052;exitDx=0;exitDy=0;fontSize=14;entryPerimeter=0;exitPerimeter=0;" parent="1" source="ieUK7-Vohn5KHJCR6Gfw-1" target="XXAQpd8H75MBfK3XgcK5-13" edge="1">
          <mxGeometry width="50" height="50" relative="1" as="geometry">
            <mxPoint x="376" y="-43" as="sourcePoint" />
            <mxPoint x="432" y="-80" as="targetPoint" />
          </mxGeometry>
        </mxCell>
        <mxCell id="ieUK7-Vohn5KHJCR6Gfw-5" value="Blood Group" style="ellipse;whiteSpace=wrap;html=1;align=center;fontSize=14;rounded=1;fillColor=#fff2cc;strokeColor=#d6b656;gradientColor=#ffd966;" parent="1" vertex="1">
          <mxGeometry x="656.5" y="-303" width="89" height="47" as="geometry" />
        </mxCell>
        <mxCell id="ieUK7-Vohn5KHJCR6Gfw-6" value="" style="endArrow=none;html=1;rounded=1;entryX=0.021;entryY=0.333;entryDx=0;entryDy=0;exitX=1;exitY=0.75;exitDx=0;exitDy=0;fontSize=14;entryPerimeter=0;" parent="1" source="s87woYfxpbsdPWMNcFb8-4" target="ieUK7-Vohn5KHJCR6Gfw-5" edge="1">
          <mxGeometry width="50" height="50" relative="1" as="geometry">
            <mxPoint x="597" y="-310" as="sourcePoint" />
            <mxPoint x="735" y="-316" as="targetPoint" />
          </mxGeometry>
        </mxCell>
        <mxCell id="ieUK7-Vohn5KHJCR6Gfw-7" value="" style="endArrow=none;html=1;rounded=1;exitX=0.066;exitY=0.758;exitDx=0;exitDy=0;exitPerimeter=0;fontSize=14;entryX=0.294;entryY=0.044;entryDx=0;entryDy=0;entryPerimeter=0;" parent="1" source="ieUK7-Vohn5KHJCR6Gfw-8" target="OCj4loIqSsVYa-qWEfAn-58" edge="1">
          <mxGeometry width="50" height="50" relative="1" as="geometry">
            <mxPoint x="55.639999999999986" y="303.5899999999999" as="sourcePoint" />
            <mxPoint x="-170" y="260" as="targetPoint" />
          </mxGeometry>
        </mxCell>
        <mxCell id="ieUK7-Vohn5KHJCR6Gfw-8" value="Fine" style="ellipse;whiteSpace=wrap;html=1;align=center;fontSize=14;direction=east;rounded=1;fillColor=#fff2cc;strokeColor=#d6b656;gradientColor=#ffd966;" parent="1" vertex="1">
          <mxGeometry x="-142.5" y="173" width="89" height="47" as="geometry" />
        </mxCell>
      </root>
    </mxGraphModel>
  </diagram>
</mxfile>
